<svg width="1200" height="675" viewBox="0 0 1200 675" fill="none" xmlns="http://www.w3.org/2000/svg">
  <defs>
    <linearGradient id="bg" x1="0" y1="0" x2="1200" y2="675" gradientUnits="userSpaceOnUse">
      <stop stop-color="#0f172a"/>
      <stop offset="1" stop-color="#1f2937"/>
    </linearGradient>
    <linearGradient id="accent" x1="260" y1="90" x2="940" y2="585" gradientUnits="userSpaceOnUse">
      <stop stop-color="#64748b" stop-opacity="0.35"/>
      <stop offset="1" stop-color="#38bdf8" stop-opacity="0.18"/>
    </linearGradient>
  </defs>

  <rect width="1200" height="675" fill="url(#bg)"/>
  <rect width="1200" height="675" fill="url(#accent)"/>

  <g transform="translate(340 90)">
    <rect x="0" y="0" width="520" height="520" rx="20" fill="#0b1220" stroke="#334155" stroke-width="4"/>
    <g>
      <rect x="16" y="16" width="61" height="61" fill="#e2e8f0"/>
      <rect x="77" y="16" width="61" height="61" fill="#475569"/>
      <rect x="138" y="16" width="61" height="61" fill="#e2e8f0"/>
      <rect x="199" y="16" width="61" height="61" fill="#475569"/>
      <rect x="260" y="16" width="61" height="61" fill="#e2e8f0"/>
      <rect x="321" y="16" width="61" height="61" fill="#475569"/>
      <rect x="382" y="16" width="61" height="61" fill="#e2e8f0"/>
      <rect x="443" y="16" width="61" height="61" fill="#475569"/>

      <rect x="16" y="77" width="61" height="61" fill="#475569"/>
      <rect x="77" y="77" width="61" height="61" fill="#e2e8f0"/>
      <rect x="138" y="77" width="61" height="61" fill="#475569"/>
      <rect x="199" y="77" width="61" height="61" fill="#e2e8f0"/>
      <rect x="260" y="77" width="61" height="61" fill="#475569"/>
      <rect x="321" y="77" width="61" height="61" fill="#e2e8f0"/>
      <rect x="382" y="77" width="61" height="61" fill="#475569"/>
      <rect x="443" y="77" width="61" height="61" fill="#e2e8f0"/>

      <rect x="16" y="138" width="61" height="61" fill="#e2e8f0"/>
      <rect x="77" y="138" width="61" height="61" fill="#475569"/>
      <rect x="138" y="138" width="61" height="61" fill="#e2e8f0"/>
      <rect x="199" y="138" width="61" height="61" fill="#475569"/>
      <rect x="260" y="138" width="61" height="61" fill="#e2e8f0"/>
      <rect x="321" y="138" width="61" height="61" fill="#475569"/>
      <rect x="382" y="138" width="61" height="61" fill="#e2e8f0"/>
      <rect x="443" y="138" width="61" height="61" fill="#475569"/>

      <rect x="16" y="199" width="61" height="61" fill="#475569"/>
      <rect x="77" y="199" width="61" height="61" fill="#e2e8f0"/>
      <rect x="138" y="199" width="61" height="61" fill="#475569"/>
      <rect x="199" y="199" width="61" height="61" fill="#e2e8f0"/>
      <rect x="260" y="199" width="61" height="61" fill="#475569"/>
      <rect x="321" y="199" width="61" height="61" fill="#e2e8f0"/>
      <rect x="382" y="199" width="61" height="61" fill="#475569"/>
      <rect x="443" y="199" width="61" height="61" fill="#e2e8f0"/>

      <rect x="16" y="260" width="61" height="61" fill="#e2e8f0"/>
      <rect x="77" y="260" width="61" height="61" fill="#475569"/>
      <rect x="138" y="260" width="61" height="61" fill="#e2e8f0"/>
      <rect x="199" y="260" width="61" height="61" fill="#475569"/>
      <rect x="260" y="260" width="61" height="61" fill="#e2e8f0"/>
      <rect x="321" y="260" width="61" height="61" fill="#475569"/>
      <rect x="382" y="260" width="61" height="61" fill="#e2e8f0"/>
      <rect x="443" y="260" width="61" height="61" fill="#475569"/>

      <rect x="16" y="321" width="61" height="61" fill="#475569"/>
      <rect x="77" y="321" width="61" height="61" fill="#e2e8f0"/>
      <rect x="138" y="321" width="61" height="61" fill="#475569"/>
      <rect x="199" y="321" width="61" height="61" fill="#e2e8f0"/>
      <rect x="260" y="321" width="61" height="61" fill="#475569"/>
      <rect x="321" y="321" width="61" height="61" fill="#e2e8f0"/>
      <rect x="382" y="321" width="61" height="61" fill="#475569"/>
      <rect x="443" y="321" width="61" height="61" fill="#e2e8f0"/>

      <rect x="16" y="382" width="61" height="61" fill="#e2e8f0"/>
      <rect x="77" y="382" width="61" height="61" fill="#475569"/>
      <rect x="138" y="382" width="61" height="61" fill="#e2e8f0"/>
      <rect x="199" y="382" width="61" height="61" fill="#475569"/>
      <rect x="260" y="382" width="61" height="61" fill="#e2e8f0"/>
      <rect x="321" y="382" width="61" height="61" fill="#475569"/>
      <rect x="382" y="382" width="61" height="61" fill="#e2e8f0"/>
      <rect x="443" y="382" width="61" height="61" fill="#475569"/>

      <rect x="16" y="443" width="61" height="61" fill="#475569"/>
      <rect x="77" y="443" width="61" height="61" fill="#e2e8f0"/>
      <rect x="138" y="443" width="61" height="61" fill="#475569"/>
      <rect x="199" y="443" width="61" height="61" fill="#e2e8f0"/>
      <rect x="260" y="443" width="61" height="61" fill="#475569"/>
      <rect x="321" y="443" width="61" height="61" fill="#e2e8f0"/>
      <rect x="382" y="443" width="61" height="61" fill="#475569"/>
      <rect x="443" y="443" width="61" height="61" fill="#e2e8f0"/>
    </g>

    <text x="90" y="105" font-size="48" fill="#111827">\</text>
    <text x="151" y="105" font-size="48" fill="#111827">^</text>
    <text x="212" y="105" font-size="48" fill="#111827">]</text>
    <text x="273" y="105" font-size="48" fill="#111827">[</text>
    <text x="334" y="105" font-size="48" fill="#111827">Z</text>
    <text x="395" y="105" font-size="48" fill="#111827">]</text>
    <text x="456" y="105" font-size="48" fill="#111827">^</text>

    <text x="90" y="532" font-size="48" fill="#f8fafc">V</text>
    <text x="151" y="532" font-size="48" fill="#f8fafc">X</text>
    <text x="212" y="532" font-size="48" fill="#f8fafc">W</text>
    <text x="273" y="532" font-size="48" fill="#f8fafc">U</text>
    <text x="334" y="532" font-size="48" fill="#f8fafc">T</text>
    <text x="395" y="532" font-size="48" fill="#f8fafc">W</text>
    <text x="456" y="532" font-size="48" fill="#f8fafc">X</text>
  </g>

  <text x="600" y="645" text-anchor="middle" font-size="34" fill="#cbd5e1" font-family="Arial, sans-serif">
    Chess
  </text>
</svg>
