<?xml version="1.0" encoding="UTF-8"?>
<svg xmlns="http://www.w3.org/2000/svg" viewBox="0 0 400 225" width="400" height="225">
  <defs>
    <linearGradient id="memBg" x1="0" y1="0" x2="400" y2="225" gradientUnits="userSpaceOnUse">
      <stop offset="0%" stop-color="#0f2d3d"/>
      <stop offset="100%" stop-color="#0a1628"/>
    </linearGradient>
    <linearGradient id="cardFace" x1="0" y1="0" x2="1" y2="1">
      <stop offset="0%" stop-color="#2a4a5c"/>
      <stop offset="100%" stop-color="#1a3040"/>
    </linearGradient>
    <linearGradient id="cardBack" x1="0" y1="0" x2="1" y2="1">
      <stop offset="0%" stop-color="#1e4558"/>
      <stop offset="100%" stop-color="#132a38"/>
    </linearGradient>
  </defs>
  <rect width="400" height="225" fill="url(#memBg)"/>
  <rect x="56" y="28" width="288" height="34" rx="8" fill="#121f2e" stroke="#2a7a9a" stroke-opacity="0.35" stroke-width="1"/>
  <text x="72" y="50" fill="#b8d4e0" font-family="Segoe UI,system-ui,sans-serif" font-size="12" font-weight="600">Memory Match</text>
  <text x="328" y="50" text-anchor="end" fill="#4dd4e8" font-family="Consolas,monospace" font-size="12" font-weight="600">0:42</text>
  <g transform="translate(72,78)">
    <rect x="0" y="0" width="52" height="52" rx="8" fill="url(#cardBack)" stroke="#3db8d8" stroke-opacity="0.5" stroke-width="1.5"/>
    <text x="26" y="34" text-anchor="middle" fill="#5ee0ff" font-family="Segoe UI,system-ui,sans-serif" font-size="22" font-weight="700">?</text>
    <rect x="60" y="0" width="52" height="52" rx="8" fill="url(#cardFace)" stroke="#e8c547" stroke-opacity="0.85" stroke-width="2"/>
    <path d="M86 16v22M74 27h24" stroke="#f5d76e" stroke-width="3" stroke-linecap="round"/>
    <rect x="120" y="0" width="52" height="52" rx="8" fill="url(#cardBack)" stroke="#3db8d8" stroke-opacity="0.5" stroke-width="1.5"/>
    <text x="146" y="34" text-anchor="middle" fill="#5ee0ff" font-family="Segoe UI,system-ui,sans-serif" font-size="22" font-weight="700">?</text>
    <rect x="180" y="0" width="52" height="52" rx="8" fill="url(#cardFace)" stroke="#e8c547" stroke-opacity="0.85" stroke-width="2"/>
    <path d="M206 16v22M194 27h24" stroke="#f5d76e" stroke-width="3" stroke-linecap="round"/>
    <rect x="0" y="60" width="52" height="52" rx="8" fill="url(#cardBack)" stroke="#3db8d8" stroke-opacity="0.5" stroke-width="1.5"/>
    <text x="26" y="94" text-anchor="middle" fill="#5ee0ff" font-family="Segoe UI,system-ui,sans-serif" font-size="22" font-weight="700">?</text>
    <rect x="60" y="60" width="52" height="52" rx="8" fill="url(#cardBack)" stroke="#3db8d8" stroke-opacity="0.5" stroke-width="1.5"/>
    <text x="86" y="94" text-anchor="middle" fill="#5ee0ff" font-family="Segoe UI,system-ui,sans-serif" font-size="22" font-weight="700">?</text>
    <rect x="120" y="60" width="52" height="52" rx="8" fill="url(#cardBack)" stroke="#3db8d8" stroke-opacity="0.5" stroke-width="1.5"/>
    <text x="146" y="94" text-anchor="middle" fill="#5ee0ff" font-family="Segoe UI,system-ui,sans-serif" font-size="22" font-weight="700">?</text>
    <rect x="180" y="60" width="52" height="52" rx="8" fill="url(#cardBack)" stroke="#3db8d8" stroke-opacity="0.5" stroke-width="1.5"/>
    <text x="206" y="94" text-anchor="middle" fill="#5ee0ff" font-family="Segoe UI,system-ui,sans-serif" font-size="22" font-weight="700">?</text>
  </g>
  <text x="392" y="218" text-anchor="end" fill="#6b7c8c" font-family="Segoe UI,system-ui,sans-serif" font-size="11">8 pairs - best time</text>
</svg>
